<?xml version="1.0" encoding="utf-8"?>
<!-- Generator: Adobe Illustrator 16.0.0, SVG Export Plug-In . SVG Version: 6.00 Build 0)  -->
<!DOCTYPE svg PUBLIC "-//W3C//DTD SVG 1.1//EN" "http://www.w3.org/Graphics/SVG/1.1/DTD/svg11.dtd">
<svg version="1.1" id="svg4488" xmlns="http://www.w3.org/2000/svg" xmlns:xlink="http://www.w3.org/1999/xlink" x="0px" y="0px"
	 width="40.219px" height="62.411px" viewBox="0 0 40.219 62.411" enable-background="new 0 0 40.219 62.411" xml:space="preserve">
<g>
	<path fill="#3BB09D" d="M15.176,37.958c-0.286,0.967-0.245,2.191,0.027,3.639c0.494,2.636,1.687,6.041,2.358,9.67h5.062
		c0.696-3.641,1.949-7.049,2.471-9.682c0.287-1.445,0.33-2.66,0.041-3.617c-0.274-0.899-0.89-1.619-2.021-2.303h-5.997
		C16.042,36.342,15.443,37.055,15.176,37.958z"/>
	<path fill="#3BB09D" d="M27.008,57.953H13.209c-1.293,0-2.299,0.977-2.299,2.229v2.229h2.299h13.798h2.299v-2.229
		C29.307,58.929,28.301,57.953,27.008,57.953z"/>
	<path fill="#3BB09D" d="M34.142,2.229H22.409c0-1.244-1.015-2.229-2.3-2.229c-1.283,0-2.3,0.985-2.3,2.229H6.072L0,27.746
		c0.794-0.461,1.589-0.992,2.632-0.992c1.359,0,2.243,0.818,2.924,1.375c0.682,0.557,1.162,0.849,1.447,0.849
		c0.292,0.001,0.769-0.287,1.451-0.836c0.681-0.548,1.564-1.358,2.915-1.358c1.349,0,2.237,0.806,2.919,1.354
		c0.684,0.549,1.161,0.84,1.451,0.84c0.146,0,0.338-0.073,0.58-0.214c0.242-0.141,0.53-0.353,0.872-0.626
		c0.512-0.411,1.139-0.967,1.99-1.218c0.284-0.085,0.593-0.136,0.93-0.136c1.347,0,2.237,0.805,2.92,1.354
		c0.683,0.548,1.159,0.84,1.451,0.84c0.287-0.002,0.766-0.296,1.444-0.85c0.685-0.554,1.571-1.367,2.926-1.367
		c1.355,0,2.238,0.817,2.919,1.371c0.342,0.276,0.631,0.489,0.872,0.631c0.24,0.143,0.431,0.214,0.574,0.214
		c0.289,0,0.763-0.293,1.442-0.854c0.681-0.559,1.567-1.384,2.929-1.384c1.045,0,1.84,0.533,2.633,0.997L34.142,2.229z"/>
	<path fill="#3BB09D" d="M23.522,53.495h-6.864c-0.657,0-1.15,0.479-1.15,1.115c0,0.635,0.493,1.112,1.15,1.112h6.9
		c0.654,0,1.15-0.479,1.15-1.112c0-0.636-0.496-1.115-1.15-1.115H23.522z"/>
	<path fill="#3BB09D" d="M20.108,29.011c-0.146,0-0.338,0.074-0.58,0.213c-0.157,0.094-0.37,0.261-0.57,0.41v3.731h2.299v-3.731
		C20.752,29.256,20.349,29.011,20.108,29.011z"/>
</g>
</svg>
