<?xml version="1.0" encoding="utf-8"?>
<!-- Generator: Adobe Illustrator 16.0.0, SVG Export Plug-In . SVG Version: 6.00 Build 0)  -->
<!DOCTYPE svg PUBLIC "-//W3C//DTD SVG 1.1//EN" "http://www.w3.org/Graphics/SVG/1.1/DTD/svg11.dtd">
<svg version="1.1" id="Layer_1" xmlns="http://www.w3.org/2000/svg" xmlns:xlink="http://www.w3.org/1999/xlink" x="0px" y="0px"
	 width="21.77px" height="21.334px" viewBox="0 0 21.77 21.334" enable-background="new 0 0 21.77 21.334" xml:space="preserve">
<g id="instagram">
	<g>
		<path fill="#46C1AE" d="M21.765,12.14c-0.013-2.396-0.344-4.788-0.303-7.135C21.44,4.217,21.377,3.47,21.31,2.727
			c-0.104-0.3-0.11-0.699-0.151-1.063c-0.26-0.17-0.223-0.639-0.456-0.834c-0.423-0.233-1.201-0.114-1.744-0.221
			c-0.657-0.025-1.254-0.115-1.899-0.152c-1.936-0.102-3.973-0.076-5.995-0.076c-2.002,0-3.954-0.145-5.695-0.379H3.167
			C3.07,0.006,3.061,0.1,2.94,0.078c-0.6,0.033-1.077,0.188-1.596,0.303C1.135,0.5,0.924,0.615,0.662,0.685
			C0.526,0.877,0.149,0.83,0.054,1.063c-0.186,0.212,0.186,0.451,0,0.607v0.911c0.173,0.13,0.027,0.58,0.075,0.834v0.988
			c-0.017,1.28,0.134,2.396,0.076,3.719c0.467,2.763,0.374,6.537,0.076,9.414c0.154,0.578,0.362,1.104,0.455,1.746
			c0.256,0.479,0.335,1.133,0.683,1.52c0.502,0.206,1.233,0.186,1.898,0.229c0.383,0.099,0.667,0.293,1.14,0.301
			c2.843-0.211,5.496-0.154,8.427-0.229c2.704,0.24,5.802,0.188,8.275-0.228c0.195-0.135,0.128-0.529,0.228-0.76
			c-0.056-0.386,0.207-0.449,0.229-0.76C21.747,16.961,21.78,14.566,21.765,12.14z M8.784,5.914c0.757-0.152,1.479-0.34,2.429-0.303
			c0.71,0.075,1.287,0.282,1.897,0.455c0.115,0.184-0.243,0.547,0.152,0.684v0.076c0.06,0.018,0.149,0.002,0.151,0.076
			c0.445,0.035,0.794,0.168,1.063,0.379c0.45,0.056,0.536,0.477,1.139,0.301c-0.091,0.213-0.084,0.523-0.075,0.834
			c0.324,1.184,0.475,2.811,0.303,4.253c-0.164,0.163-0.215,0.442-0.303,0.683c-0.311,0.322-0.481,0.785-0.836,1.063
			c-0.095,0.236-0.25,0.408-0.454,0.533c-0.116,0.213-0.206,0.451-0.457,0.529c-0.298,0.163-0.577,0.012-0.834-0.076
			c-0.446,0.162-0.904,0.313-1.215,0.607c-0.816-0.096-1.648-0.176-2.43-0.305c-0.242-0.139-0.487-0.272-0.835-0.305
			c-0.228-0.203-0.496-0.363-0.837-0.455c-0.101-0.127-0.337-0.117-0.454-0.229c-0.198-0.029-0.229-0.227-0.456-0.229
			c-0.118-0.412-0.443-0.619-0.532-1.063c-0.227-0.331-0.309-0.805-0.455-1.215c-0.043-1.434,0.091-2.692,0.379-3.797
			c0.346-0.59,0.779-1.094,1.138-1.67c0.249,0.021,0.365-0.09,0.38-0.304c0.307,0.054,0.435-0.071,0.685-0.075
			C8.583,6.371,8.594,6.055,8.784,5.914z M7.114,3.182C6.997,2.919,7.048,2.49,7.039,2.119C7.032,1.835,7.317,1.841,7.343,1.588
			C7.34,1.514,7.25,1.529,7.191,1.512c0.126-0.146,0.7-0.098,0.834,0c0.132,0.537-0.354,0.455-0.531,0.684
			C7.505,2.363,7.816,2.228,7.95,2.271c0.028,0.854-0.06,1.496,0,2.202H7.494C7.487,4.707,7.722,4.699,7.95,4.701
			C7.89,4.988,8.042,5.064,8.025,5.309C7.799,5.462,7.308,5.351,6.963,5.384C6.86,4.789,7.198,4.009,7.114,3.182z M6.43,1.588
			c0.088-0.014,0.135,0.016,0.151,0.076c0.179,0.252,0.01,0.683-0.076,0.91C6.333,2.396,6.48,1.893,6.43,1.588z M6.583,3.41
			C6.451,3.341,6.415,3.173,6.43,2.953C6.563,3.025,6.597,3.191,6.583,3.41z M6.583,4.777C6.525,4.916,6.501,4.732,6.507,4.625
			C6.565,4.486,6.588,4.67,6.583,4.777z M6.43,5.005C6.606,4.98,6.514,5.224,6.659,5.232C6.65,5.425,6.376,5.41,6.279,5.309
			C6.318,5.197,6.391,5.115,6.43,5.005z M4.077,3.789C4.083,3.681,4.09,3.574,4.001,3.561c-0.073-0.732,0.13-1.415,0-1.973
			c0.25-0.155,0.769-0.042,1.139-0.077v1.14C5.052,2.714,4.936,2.75,4.76,2.727c-0.054,0.28,0.324,0.131,0.379,0.305
			C5.148,3.884,5.084,4.808,5.292,5.46C4.726,5.4,4.385,5.566,3.849,5.535c0.098-0.611-0.019-1.435,0.531-1.594
			C4.369,3.801,4.124,3.895,4.077,3.789z M3.546,3.789C3.342,3.81,3.329,3.255,3.469,3.182C3.797,3.188,3.718,3.683,3.546,3.789z
			 M3.393,4.777C3.47,4.465,3.427,4.473,3.469,4.094C3.697,4.107,3.728,4.863,3.393,4.777z M3.622,2.727
			c-0.263,0.055-0.273-0.266-0.153-0.38C3.732,2.294,3.741,2.613,3.622,2.727z M3.622,1.588C3.655,1.746,3.57,1.789,3.546,1.892
			C3.37,1.914,3.462,1.673,3.317,1.662C3.342,1.561,3.508,1.601,3.622,1.588z M3.393,5.309c0.148-0.031,0.11,0.346-0.075,0.227
			C3.358,5.474,3.397,5.412,3.393,5.309z M2.71,1.588c0.029,0.259-0.438,0.32-0.379,0H2.71z M1.722,1.664
			C1.689,1.883,1.397,1.843,1.344,2.043C1.13,1.873,1.427,1.574,1.722,1.664z M1.267,2.423c0.227-0.205,0.451-0.41,0.685-0.606
			C1.93,1.693,2.023,1.685,2.028,1.588h0.229c0.103,0.381-0.261,0.296-0.305,0.531C1.972,2.24,1.88,2.25,1.877,2.346
			c0.021,0.335,0.121,0.588,0.075,0.988C1.681,3.342,1.676,3.613,1.344,3.561C1.367,3.133,1.21,2.887,1.267,2.423z M1.344,5.688
			V4.094C1.539,3.908,1.74,3.729,1.951,3.562C2.246,4.051,2.13,4.953,2.406,5.459C2.131,5.615,1.656,5.57,1.344,5.688z
			 M19.565,16.771c-0.109,0.954-0.158,1.969-0.38,2.809c-2.89,0.123-6.02,0.006-8.883,0.154c-0.199,0.045-0.272-0.031-0.229-0.229
			c-0.253,0-0.258,0.247-0.531,0.229c0.201-0.337,0.438-0.898,0.151-1.291c-0.797,0.012-0.797,0.82-1.139,1.291
			c-0.686-0.054-1.137,0.127-1.822,0.074c0.18-0.705,0.75-1.021,0.91-1.745c-0.395-0.55-0.988,0.138-1.214,0.455
			c-0.204,0.479-0.557,0.81-0.76,1.29H4.684c0.238-0.469,0.489-0.926,0.76-1.365c0.171-0.513,0.625-0.742,0.683-1.367
			c-0.157-0.28-0.42-0.029-0.683,0c-0.123,0.182-0.272,0.334-0.38,0.531c-0.232,0.375-0.501,0.713-0.685,1.139
			c-0.181,0.209-0.335,0.004-0.53,0.228c-0.389,0.271-0.581,0.736-0.987,0.987C2.688,19.9,2.901,19.604,3.014,19.58
			c0.045-0.18-0.096-0.549,0.075-0.606c0.063-0.366,0.212-0.647,0.379-0.91c0.119-0.741,0.521-1.198,0.685-1.897
			c-0.56,0.099-0.675,0.643-0.988,0.986c-0.212,0.445-0.542,0.772-0.683,1.291c-0.175-0.131-0.028-0.58-0.076-0.836
			c0.122-0.586,0.298-1.119,0.38-1.746c0.133-0.22,0.173-0.535,0.228-0.834c0.168-0.209,0.046-0.609-0.077-0.761
			C2.711,14.294,2.563,14.4,2.482,14.57c-0.192-0.031-0.193,0.506-0.305,0.305c-0.045-2.588-0.451-4.813-0.456-7.438
			c0.026-0.331-0.183-0.424-0.228-0.685C3.123,6.779,4.615,6.843,6.277,6.98C6.188,7.119,6.078,7.238,5.972,7.359
			C5.829,7.43,5.747,7.533,5.594,7.664c-0.604,1.652-0.975,3.983-0.606,6.149c0.229,0.58,0.589,1.029,0.985,1.441
			c0.907,0.485,1.636,1.149,2.507,1.671c1.7,0.361,3.84,0.369,5.541,0c0.235-0.12,0.483-0.227,0.685-0.38
			c1.364-1.242,2.753-2.459,2.961-4.859V10.32c-0.197-1.599-0.688-2.906-1.747-3.645c0.331-0.221,1.099,0.043,1.67,0.076
			c0.224,0.013,0.447,0.014,0.685,0c0.407-0.024,0.928-0.055,1.442,0c0.145,0.187,0.113,0.544,0.229,0.76
			c-0.063,1.684-0.192,3.3-0.152,5.087c0.103,0.454,0.127,0.986,0.229,1.44C19.93,15.013,19.785,15.93,19.565,16.771z M19.944,5.611
			c-0.64-0.119-1.232-0.283-1.897-0.379c0.072-0.332,0.799-0.01,0.987-0.228c0.385-0.224,0.295-0.92,0.304-1.511
			c0.032-0.348,0.114-0.644,0.076-1.063c-0.401-0.951-1.783-0.421-2.886-0.455c-0.226,0.719-0.471,1.801-0.305,2.657
			c0.169,0.489,1.024,0.292,1.52,0.456c-0.141,0.332-0.688,0.057-0.987,0.076c-0.296-0.084-0.707-0.053-0.986-0.151
			c-2.284,0.078-4.283,0.004-6.528,0.151c0.117-1.248,0.063-2.465-0.076-3.646h3.112c-0.345,0.364-0.912,0.507-1.29,0.835
			c-0.44,0.244-0.861,0.506-1.14,0.911c0.249,0.134,0.535-0.245,0.76-0.379c0.354-0.074,0.479-0.381,0.835-0.455
			c0.423-0.438,1.096-0.625,1.67-0.912c0.378-0.022,0.696,0.013,0.986,0.077c1.283,0.007,2.456,0.126,3.796,0.076
			c0.614,0.145,1.45,0.068,1.975,0.304c0.106,0.298,0.23,0.579,0.305,0.911C20.181,3.875,20.025,4.705,19.944,5.611z M14.098,1.892
			C14.209,1.845,14.09,1.8,14.098,1.892L14.098,1.892z M14.098,1.892C13.57,2.046,13.08,2.24,12.732,2.574
			C13.216,2.375,13.791,2.268,14.098,1.892z M15.161,2.498C15.272,2.451,15.154,2.408,15.161,2.498L15.161,2.498z M13.415,3.41
			c0.727-0.158,1.181-0.592,1.746-0.912c-0.438,0.02-0.592,0.32-0.987,0.38C13.959,3.095,13.574,3.138,13.415,3.41z M12.732,2.574
			C12.621,2.621,12.739,2.666,12.732,2.574L12.732,2.574z M12.049,3.182C12.159,3.136,12.041,3.09,12.049,3.182L12.049,3.182z
			 M11.973,3.258c0.063,0.014,0.07-0.03,0.075-0.076C11.985,3.168,11.976,3.212,11.973,3.258z M11.897,3.334
			c0.063,0.014,0.071-0.03,0.076-0.076C11.907,3.244,11.902,3.287,11.897,3.334z M11.063,3.941c0.346-0.134,0.612-0.348,0.834-0.606
			C11.549,3.468,11.282,3.682,11.063,3.941z M13.339,4.929c0.533-0.049,0.749-0.416,1.215-0.531c0.284-0.298,0.784-0.381,0.987-0.76
			c-0.56,0.022-0.766,0.399-1.216,0.531C14.041,4.466,13.574,4.582,13.339,4.929z M11.063,3.941
			C10.746,3.867,11.047,4.169,11.063,3.941L11.063,3.941z M10.53,4.32c0.021,0.021,0.114-0.037,0.076-0.076
			C10.585,4.224,10.49,4.281,10.53,4.32z M13.339,4.929C13.228,4.976,13.345,5.02,13.339,4.929L13.339,4.929z M12.199,6.75
			c-0.224-0.231-0.676-0.233-0.986-0.379C10.515,6.332,9.99,6.464,9.467,6.6C9.163,6.75,8.86,6.904,8.556,7.054
			C8.291,7.22,8.113,7.471,7.797,7.586c-0.205,0.225-0.352,0.51-0.684,0.607C7.109,8.416,6.94,8.474,6.808,8.572
			C6.719,8.687,6.715,8.884,6.582,8.953C6.575,9.072,6.618,9.242,6.506,9.256c0.108,1.512,0.291,2.947,0.684,4.177
			c0.286,0.623,0.975,0.847,1.441,1.29c0.589,0.297,1.328,0.443,2.126,0.531c0.277-0.053,0.553-0.105,0.911-0.076
			c1.209-0.209,2.098-0.736,2.81-1.441c0.101-0.281,0.253-0.508,0.455-0.684c-0.254-0.671,0.293-1.098,0.455-1.59
			c0.002-1.344-0.201-2.48-0.606-3.415c-0.256-0.579-0.92-0.751-1.366-1.14c-0.059-0.018-0.15-0.002-0.151-0.076
			C12.995,6.695,12.531,6.593,12.199,6.75z M8.784,11.076c-0.113-0.063-0.109-0.244-0.152-0.379
			C8.887,10.619,8.75,10.935,8.784,11.076z M8.86,11.382c0.041-0.117,0.079-0.006,0.075,0.075
			C8.896,11.574,8.857,11.462,8.86,11.382z M9.316,9.33c0.015-0.086,0.074-0.041,0.074,0C9.377,9.418,9.316,9.373,9.316,9.33z
			 M10.986,7.205c-0.203,0.259,0.041,0.576,0.077,0.836C10.758,8.003,10.489,7.154,10.986,7.205z M11.365,11.154
			c-0.04-0.039,0.055-0.098,0.076-0.076C11.481,11.115,11.386,11.175,11.365,11.154z M12.124,14.037
			c0.034-0.108,0.066,0.009,0.152,0C12.258,14.135,12.126,14.115,12.124,14.037z M14.325,11.457
			c-0.233-0.057-0.146,0.207-0.379,0.152c0.068-0.16,0.118-0.339,0.229-0.455C14.308,11.173,14.346,11.283,14.325,11.457z
			 M13.188,7.66c0.211,0.119,0.44,0.218,0.605,0.381c0.085,0.22,0.243,0.363,0.38,0.529c0.059,0.778,0.179,1.492,0.151,2.354
			c-0.257,0.099-0.438,0.271-0.684,0.381c-0.779-0.006-1.357-0.212-1.896-0.456c-0.171-0.259-0.355-0.505-0.532-0.759V9.029
			c0.17-0.186,0.319-0.392,0.456-0.607c0.229-0.127,0.508-0.201,0.454-0.607c-0.038-0.062-0.078-0.123-0.075-0.229
			c0.158,0.045,0.245,0.158,0.379,0.229C12.75,7.832,12.837,7.615,13.188,7.66z"/>
	</g>
</g>
</svg>
