<?xml version="1.0" encoding="utf-8"?>
<!-- Generator: Adobe Illustrator 16.0.0, SVG Export Plug-In . SVG Version: 6.00 Build 0)  -->
<!DOCTYPE svg PUBLIC "-//W3C//DTD SVG 1.1//EN" "http://www.w3.org/Graphics/SVG/1.1/DTD/svg11.dtd">
<svg version="1.1" id="Layer_1" xmlns="http://www.w3.org/2000/svg" xmlns:xlink="http://www.w3.org/1999/xlink" x="0px" y="0px"
    width="20.293px" height="18.85px" viewBox="0 0 20.293 18.85" enable-background="new 0 0 20.293 18.85" xml:space="preserve">
<path fill="#62D1BA" d="M19.542,7.229h-3.151l-3.407-6.814c-0.186-0.37-0.634-0.52-1.006-0.335
  c-0.371,0.187-0.521,0.636-0.335,1.006l3.071,6.144H5.576l3.072-6.144c0.186-0.371,0.035-0.82-0.335-1.006
  c-0.37-0.185-0.821-0.035-1.006,0.335L3.9,7.229H0.75C0.335,7.229,0,7.565,0,7.979s0.336,0.75,0.75,0.75h0.156l0.855,2.991
  c-0.188,0.137-0.316,0.347-0.316,0.595c0,0.396,0.309,0.71,0.697,0.739l1.656,5.795h12.697l1.655-5.795
  c0.388-0.028,0.698-0.345,0.698-0.739c0-0.249-0.129-0.459-0.316-0.596l0.854-2.991h0.158c0.414,0,0.75-0.336,0.75-0.75
  S19.957,7.229,19.542,7.229z M15.361,17.35H4.927l-1.223-4.284h12.881L15.361,17.35z M17.014,11.565H3.275L2.464,8.729h15.359
  L17.014,11.565z"/>
</svg>
