<?xml version="1.0" encoding="utf-8"?>
<!-- Generator: Adobe Illustrator 16.0.0, SVG Export Plug-In . SVG Version: 6.00 Build 0)  -->
<!DOCTYPE svg PUBLIC "-//W3C//DTD SVG 1.1//EN" "http://www.w3.org/Graphics/SVG/1.1/DTD/svg11.dtd">
<svg version="1.1" id="Layer_1" xmlns="http://www.w3.org/2000/svg" xmlns:xlink="http://www.w3.org/1999/xlink" x="0px" y="0px"
	 width="31.973px" height="37.301px" viewBox="0 0 31.973 37.301" enable-background="new 0 0 31.973 37.301" xml:space="preserve">
<path fill="#63D1BB" d="M15.986,37.301c8.827,0,15.986-7.159,15.986-15.986C23.144,21.314,15.986,28.473,15.986,37.301z
	 M4.628,16.43c0,2.451,1.988,4.441,4.439,4.441c0.933,0,1.803-0.294,2.513-0.781l-0.035,0.336c0,2.451,1.989,4.441,4.44,4.441
	s4.44-1.99,4.44-4.441l-0.036-0.336c0.719,0.496,1.582,0.781,2.514,0.781c2.451,0,4.44-1.99,4.44-4.441
	c0-1.767-1.038-3.285-2.54-3.996c1.492-0.71,2.54-2.229,2.54-3.997c0-2.451-1.989-4.44-4.44-4.44c-0.932,0-1.803,0.293-2.514,0.781
	l0.037-0.337c0-2.451-1.989-4.44-4.44-4.44s-4.44,1.99-4.44,4.44l0.036,0.337c-0.72-0.497-1.581-0.781-2.514-0.781
	c-2.451,0-4.439,1.99-4.439,4.44c0,1.768,1.039,3.286,2.54,3.997C5.667,13.145,4.628,14.663,4.628,16.43z M15.986,7.993
	c2.451,0,4.44,1.989,4.44,4.44s-1.989,4.439-4.44,4.439s-4.44-1.99-4.44-4.439C11.546,9.982,13.535,7.993,15.986,7.993z
	 M0.001,21.314c0,8.827,7.157,15.986,15.985,15.986C15.986,28.473,8.828,21.314,0.001,21.314z"/>
</svg>
