<?xml version="1.0" encoding="utf-8"?>
<!-- Generator: Adobe Illustrator 16.0.0, SVG Export Plug-In . SVG Version: 6.00 Build 0)  -->
<!DOCTYPE svg PUBLIC "-//W3C//DTD SVG 1.1//EN" "http://www.w3.org/Graphics/SVG/1.1/DTD/svg11.dtd">
<svg version="1.1" id="Layer_1" xmlns="http://www.w3.org/2000/svg" xmlns:xlink="http://www.w3.org/1999/xlink" x="0px" y="0px"
	 width="60px" height="59.621px" viewBox="0 0 60 59.621" enable-background="new 0 0 60 59.621" xml:space="preserve">
<path fill="#35A999" d="M0.001,43.681l27.438,15.935V36.269L0.001,20.33V43.681z M51.348,12.437v2.453
	c0,1.817-3.459,3.291-7.73,3.291c-4.266,0-7.727-1.474-7.727-3.291v-4.059h0.023c0.26,1.714,3.604,3.072,7.702,3.072
	c4.272,0,7.729-1.473,7.729-3.284c0-1.819-3.456-3.289-7.729-3.289c-0.339,0-0.675,0.01-1.003,0.03l-4.975-2.889v3.086
	c0,1.817-3.453,3.291-7.723,3.291c-2.684,0-5.045-0.584-6.434-1.468c-0.195-0.202-0.438-0.401-0.731-0.586
	c-0.363-0.381-0.565-0.797-0.565-1.235V4.574l-4.807,2.792c-0.348-0.017-0.695-0.033-1.055-0.033c-4.266,0-7.727,1.47-7.727,3.289
	c0,1.812,3.461,3.285,7.727,3.285c4.1,0,7.447-1.358,7.705-3.073h0.022v4.059c0,1.817-3.454,3.291-7.728,3.291
	c-4.266,0-7.727-1.474-7.727-3.291v-2.42l-5.951,3.453l27.53,15.985l27.351-15.882L51.348,12.437z M37.703,22.603
	c0,1.817-3.46,3.287-7.727,3.287c-4.27,0-7.729-1.47-7.729-3.287v-4.059h0.024c0.26,1.715,3.603,3.076,7.705,3.076
	c4.101,0,7.442-1.361,7.705-3.076h0.021L37.703,22.603L37.703,22.603z M32.559,36.476v23.145L60,43.681V20.538L32.559,36.476z
	 M29.917,6.573c4.269,0,7.724-1.47,7.724-3.286C37.641,1.472,34.186,0,29.917,0c-4.271,0-7.729,1.473-7.729,3.287
	C22.188,5.103,25.646,6.573,29.917,6.573"/>
</svg>
