<?xml version="1.0" encoding="utf-8"?>
<!-- Generator: Adobe Illustrator 16.0.0, SVG Export Plug-In . SVG Version: 6.00 Build 0)  -->
<!DOCTYPE svg PUBLIC "-//W3C//DTD SVG 1.1//EN" "http://www.w3.org/Graphics/SVG/1.1/DTD/svg11.dtd">
<svg version="1.1" id="Layer_1" xmlns="http://www.w3.org/2000/svg" xmlns:xlink="http://www.w3.org/1999/xlink" x="0px" y="0px"
    width="23.494px" height="20.168px" viewBox="0 0 23.494 20.168" enable-background="new 0 0 23.494 20.168" xml:space="preserve">
<g id="twitter">
  <g>
    <path fill="#46C1AE" d="M23.452,4.083c-0.227-0.366-0.91-0.277-1.408-0.371h-1.111c0.143-0.354,0.344-0.646,0.52-0.963
      c0.057-0.438,0.254-0.734,0.225-1.261c0.129-0.167,0.176-0.417,0.295-0.593c0.104-0.145,0.242-0.477,0.074-0.667
      c-0.051-0.222-0.295-0.249-0.594-0.222c-0.088,0.035-0.168,0.078-0.221,0.147c-0.449,0.433-0.779,1.015-1.262,1.408
      c-0.01,0.008-0.063,0-0.074,0c-0.086,0.005-0.033,0.046-0.074,0.074c-0.146,0.098-0.258,0.151-0.369,0.223
      c-0.285,0.177-0.547,0.445-0.891,0.519c-0.529-0.211-1.156-0.325-1.854-0.369c-1.156,0.102-2.303,0.215-3.037,0.74
      c-0.91,0.351-1.477,1.043-2.149,1.631c-0.049,0.32-0.342,0.397-0.37,0.74c-0.005,0.045-0.013,0.088-0.073,0.074
      c0.043,0.241-0.051,0.346-0.074,0.52c-0.001,0.133,0.199,0.431,0,0.52C10.182,6.114,9.52,5.604,8.856,5.27
      c-0.719-0.36-1.469-0.604-2.074-1.11c-0.717-0.322-1.26-0.816-1.778-1.334C4.795,2.513,4.461,2.329,4.336,1.935
      c-0.379-0.164-0.175-0.912-0.74-0.889C3.281,1.003,3.25,1.245,3.151,1.415c-0.069,0.228-0.36,0.232-0.37,0.52
      C2.776,1.98,2.77,2.022,2.707,2.01C2.537,3.099,2.18,4.001,2.188,5.27c0.129,0.415,0.35,0.737,0.593,1.038
      c-0.418,0.051-0.716,0.222-0.89,0.52C1.831,7.899,2.268,8.474,2.633,9.124c0.133,0.383,0.352,0.685,0.592,0.963
      c0.018,0.229,0.207,0.287,0.297,0.445c0.019,0.104,0.123,0.125,0.148,0.223c-0.04,0.104,0.289,0.18,0.073,0.221
      c-0.413,0.131-1.017,0.07-1.259,0.371c-0.109,0.279-0.109,0.833,0,1.111c0.033,0.236,0.281,0.262,0.296,0.519
      c0.499,0.417,1.082,0.747,1.631,1.112c0.574,0.166,1.211,0.271,1.853,0.369C6.162,14.802,5.926,15.01,5.67,15.2
      c-0.779,0.381-1.849,0.473-2.742,0.739c-0.555,0.038-0.955,0.229-1.556,0.224C1.04,16.29,0.518,16.237,0.26,16.386
      c-0.121,0.068-0.102,0.096-0.222,0.221c-0.134,0.412,0.11,0.74,0.444,0.891c-0.006,0.252,0.219,0.275,0.371,0.371
      c0.088,0.183,0.254,0.289,0.445,0.369c0.543,0.469,1.268,0.76,1.926,1.112c0.83,0.183,1.648,0.376,2.521,0.519
      c0.896,0.116,1.901,0.125,2.815,0.223h0.963c0.512,0.132,1.23,0.054,1.854,0.074c0.096-0.103,0.322-0.073,0.52-0.074
      c0.522-0.27,1.196-0.385,1.631-0.74c0.574-0.241,0.988-0.643,1.557-0.891c0.865-0.765,1.938-1.323,2.52-2.369
      c0.205-0.189,0.35-0.438,0.443-0.74c0.266-0.156,0.387-0.454,0.594-0.667c0.404-0.41,0.707-0.924,1.037-1.399
      c0.318-0.496,0.576-1.055,0.891-1.557c-0.01-0.404,0.305-0.484,0.295-0.891c0.193-0.226,0.178-0.661,0.371-0.879
      c-0.033-0.256,0.029-0.416,0.074-0.594c0.047-1.281-0.047-2.423-0.297-3.408c0.588-0.154,1.182-0.302,1.631-0.592
      C23.163,5.157,23.638,4.761,23.452,4.083z M20.044,8.159c-0.152,0.858-0.615,1.409-1.039,2c0.061,0.379-0.104,0.539-0.072,0.889
      c-0.158,0.313-0.287,0.652-0.371,1.037c-0.203,0.268-0.332,0.606-0.52,0.891c-0.365,0.548-0.775,1.051-1.186,1.557
      c-0.377,0.561-0.912,0.965-1.334,1.481c-0.42,0.493-0.941,0.885-1.406,1.334c-0.475,0.17-0.891,0.396-1.26,0.667
      c-0.232,0.09-0.463,0.18-0.668,0.296c-0.176,0.146-0.498,0.146-0.668,0.29c-1.086,0.146-2.299,0.17-3.555,0.148
      c-1.031-0.105-2.115-0.16-3.039-0.371c-0.922-0.189-1.511-0.713-2.297-1.037c0.153-0.242,0.635-0.154,0.963-0.223
      c0.031-0.166,0.395-0.002,0.444-0.148c0.257,0.06,0.285-0.109,0.521-0.07c0.563-0.201,1.229-0.302,1.705-0.593
      c0.281-0.138,0.405-0.435,0.666-0.593c0.033-0.189,0.104-0.342,0.223-0.444c0.047-0.274,0.201-0.44,0.148-0.815
      c0.11-0.209,0.299-0.343,0.295-0.666c-0.074-0.147-0.127-0.316-0.295-0.371c-0.027-0.196-0.378-0.067-0.445-0.223
      C6.6,13.227,6.438,13.165,6.262,13.12c-0.154-0.043-0.488,0.092-0.52-0.074c-0.842-0.022-1.301-0.43-1.854-0.739
      c0.432-0.263,1.032-0.353,1.334-0.742c0.516-0.076,1.058-0.129,1.111-0.666c0-0.717-0.771-0.661-1.333-0.815
      c-0.772-0.66-1.194-1.672-1.778-2.52C3.46,7.407,3.787,7.337,3.963,7.12C4.417,7.178,4.503,6.868,4.63,6.6
      c0.019-0.488-0.333-0.604-0.593-0.815c-0.259-0.209-0.475-0.461-0.667-0.74C3.368,4.227,3.35,3.393,3.445,2.673
      c0.063-0.014,0.069,0.029,0.073,0.074c0.228,0.44,0.56,0.774,0.815,1.186C4.866,4.29,5.258,4.786,5.889,5.044
      c0.453,0.414,1.108,0.621,1.558,1.039c0.601,0.263,1.157,0.569,1.704,0.889c0.669,0.193,1.056,0.673,2.001,0.593
      c0.198-0.099,0.394-0.198,0.593-0.297c0.258-0.456-0.059-1.079,0.146-1.63c0.256-0.659,0.797-1.031,1.26-1.48
      c0.291-0.156,0.555-0.336,0.816-0.52c0.346-0.098,0.674-0.217,0.963-0.37c0.377-0.019,0.713-0.077,1.037-0.147h1.26
      c0.244,0.051,0.475,0.118,0.74,0.147c0.209,0.137,0.381,0.313,0.666,0.371c0.789,0.692,1.271,1.696,1.408,3.039
      C19.921,7.161,20.097,7.551,20.044,8.159z M20.339,2.526c-0.129,0.34-0.229,0.707-0.592,0.815
      c-0.018-0.105-0.123-0.125-0.146-0.222c-0.014-0.209,0.209-0.187,0.295-0.297C20.058,2.738,20.142,2.575,20.339,2.526
      C20.333,2.437,20.448,2.48,20.339,2.526z M14.856,5.564c0.162,0.136,0.283,0.31,0.518,0.371c0.102,0.222,0.314,0.327,0.596,0.37
      c0.047-0.15,0.346-0.049,0.369-0.223c0.174-0.022,0.166-0.229,0.297-0.297c-0.02-0.55-0.131-1.006-0.371-1.332
      C15.507,4.03,14.589,4.493,14.856,5.564z"/>
  </g>
</g>
</svg>
