<?xml version="1.0" encoding="utf-8"?>
<!-- Generator: Adobe Illustrator 16.0.0, SVG Export Plug-In . SVG Version: 6.00 Build 0)  -->
<!DOCTYPE svg PUBLIC "-//W3C//DTD SVG 1.1//EN" "http://www.w3.org/Graphics/SVG/1.1/DTD/svg11.dtd">
<svg version="1.1" id="Layer_1" xmlns="http://www.w3.org/2000/svg" xmlns:xlink="http://www.w3.org/1999/xlink" x="0px" y="0px"
	 width="54.156px" height="23.184px" viewBox="0 0 54.156 23.184" enable-background="new 0 0 54.156 23.184" xml:space="preserve">
<g>
	<path fill="#63D1BB" d="M40.311,5.71c-3.646-0.971-7.839-1.667-12.358-1.666c-2.892,0.001-5.457,0.243-7.71,0.623l-6.784-4.668
		L0.002,0.004l5.811,6.185h8.447C9.68,7.786,7.501,9.703,7.501,9.703l0.002,3.777c0,0,2.313,1.912,6.931,3.518l-8.623-0.004
		L0,23.181l13.455,0.002l6.815-4.691c2.262,0.398,4.822,0.646,7.682,0.648c4.521-0.002,8.712-0.697,12.359-1.668
		c-1.176-1.775-1.915-3.742-1.918-5.876C38.396,9.454,39.132,7.484,40.311,5.71z"/>
	<path fill="#63D1BB" d="M43.733,6.744c-1.283,1.605-1.969,3.25-1.965,4.84c-0.007,1.597,0.677,3.238,1.968,4.847
		c6.399-2.162,10.42-4.841,10.42-4.841S50.137,8.91,43.733,6.744z"/>
</g>
</svg>
