<?xml version="1.0" encoding="utf-8"?>
<!-- Generator: Adobe Illustrator 16.0.0, SVG Export Plug-In . SVG Version: 6.00 Build 0)  -->
<!DOCTYPE svg PUBLIC "-//W3C//DTD SVG 1.1//EN" "http://www.w3.org/Graphics/SVG/1.1/DTD/svg11.dtd">
<svg version="1.1" id="Layer_1" xmlns="http://www.w3.org/2000/svg" xmlns:xlink="http://www.w3.org/1999/xlink" x="0px" y="0px"
    width="32.666px" height="32.486px" viewBox="0 0 32.666 32.486" enable-background="new 0 0 32.666 32.486" xml:space="preserve">
<path fill="#63D1BB" d="M2.895,32.486h12.504v-13.91H2.895V32.486z M31.077,8.866h-7.334c0.521-0.267,0.984-0.549,1.396-0.845
  c1.588-1.133,2.424-2.57,2.42-3.999c0.002-1.169-0.557-2.202-1.359-2.901C25.396,0.417,24.331,0.002,23.185,0
  c-1.221-0.001-2.354,0.422-3.32,1.069c-1.459,0.979-2.607,2.451-3.424,4.067c-0.039,0.079-0.078,0.156-0.115,0.235
  c-0.299-0.623-0.647-1.226-1.041-1.792c-0.691-0.984-1.523-1.859-2.497-2.511C11.817,0.424,10.684,0,9.464,0
  C8.251,0.004,7.141,0.514,6.309,1.295C5.481,2.078,4.899,3.18,4.897,4.43C4.895,5.16,5.108,5.925,5.546,6.618
  C6.098,7.49,6.97,8.246,8.179,8.866H1.591C0.713,8.866,0,9.578,0,10.456v5.897h15.396V8.865h1.874v7.488h15.395v-5.897
  C32.669,9.577,31.956,8.866,31.077,8.866 M8.715,6.527c-0.622-0.391-1-0.785-1.22-1.135C7.276,5.038,7.202,4.73,7.2,4.429
  C7.196,3.926,7.448,3.387,7.891,2.969c0.437-0.415,1.027-0.667,1.562-0.667h0.013c0.686,0,1.366,0.23,2.046,0.683
  c1.019,0.671,1.976,1.85,2.646,3.188c0.342,0.676,0.609,1.39,0.789,2.087C11.864,7.937,9.868,7.257,8.715,6.527 M19.253,4.9
  c0.557-0.797,1.209-1.466,1.887-1.916c0.68-0.451,1.361-0.683,2.047-0.683h0.006c0.574,0,1.117,0.22,1.494,0.55
  c0.377,0.336,0.57,0.739,0.572,1.171c-0.004,0.512-0.271,1.259-1.467,2.132c-1.137,0.825-3.1,1.673-6.127,2.265
  C17.956,7.218,18.513,5.947,19.253,4.9 M17.272,32.486h12.506v-13.91H17.272V32.486z"/>
</svg>
