<?xml version="1.0" encoding="utf-8"?>
<!-- Generator: Adobe Illustrator 16.0.0, SVG Export Plug-In . SVG Version: 6.00 Build 0)  -->
<!DOCTYPE svg PUBLIC "-//W3C//DTD SVG 1.1//EN" "http://www.w3.org/Graphics/SVG/1.1/DTD/svg11.dtd">
<svg version="1.1" id="Layer_1" xmlns="http://www.w3.org/2000/svg" xmlns:xlink="http://www.w3.org/1999/xlink" x="0px" y="0px"
    width="101.615px" height="34.057px" viewBox="0 0 101.615 34.057" enable-background="new 0 0 101.615 34.057"
    xml:space="preserve">
<g>
  <path fill="#46C1AE" d="M19.135,21.495c-0.083-2.683-0.51-5.347-0.475-8.035c0.028-2.174,0.389-4.41-0.36-6.495
    c0.047-0.236,0.096-0.473,0.14-0.711c0.193-1.045-3.271-0.491-3.813,0.464c-0.343,0.28-0.519,0.615-0.375,0.957
    c0.037,0.086,0.069,0.175,0.102,0.262c-0.656,3.204-1.57,6.306-2.621,9.412c-0.402,1.188-0.888,2.349-1.298,3.532
    c-0.582-1.104-1.169-2.193-1.643-3.377C7.418,14.071,6.18,10.602,4.505,7.298C4.695,5.77,1.301,5.93,0.632,7.33
    c-0.809,1.694-0.705,3.403-0.438,5.214c0.3,2.042,0.353,4.05,0.377,6.111c0.047,3.976,0.358,7.943,0.417,11.919
    c-0.354,0.395-0.461,0.881-0.091,1.375c0.162,0.216,0.361,0.382,0.571,0.549c0.904,0.725,3.5,0.107,3.496-1.271
    c-0.014-4.123-0.312-8.238-0.42-12.358c-0.011-0.404-0.018-0.807-0.024-1.21c0.057,0.146,0.114,0.29,0.171,0.434
    c0.64,1.604,1.31,3.163,2.185,4.654c0.868,1.479,1.303,3.064,1.803,4.677c-0.189,0.218-0.303,0.462-0.233,0.708
    c-0.039,0.181,0.07,0.292,0.251,0.36c0.639,0.548,1.841,0.274,2.509-0.007c0.287-0.121,0.561-0.261,0.826-0.424
    c0.345-0.212,0.883-0.68,0.729-1.159c-0.03-0.093-0.058-0.187-0.087-0.279c0.47-1.27,0.709-2.589,0.965-3.93
    c0.272-1.428,0.782-2.78,1.295-4.133c0.052,0.619,0.106,1.237,0.156,1.854c0.204,2.554,0.033,5.072,0.007,7.626
    c-0.008,0.848,0.054,1.633,0.219,2.461c0.068,0.344,0.367,1.809,0.281,1.888c-0.611,0.563-0.433,1.257,0.385,1.437
    c0.915,0.201,2.081-0.104,2.77-0.742c1.198-1.105,0.632-2.845,0.361-4.241C18.661,26.501,19.208,23.879,19.135,21.495z"/>
  <path fill="#46C1AE" d="M27.499,22.17c-0.074-1.987-0.765-3.861-0.774-5.872c-0.011-2.305,0.181-4.593-0.155-6.886
    c-0.106-0.725-4.056,0.101-3.917,1.05c0.309,2.11,0.197,4.229,0.159,6.354c-0.037,2.044,0.468,3.897,0.73,5.904
    c0.269,2.054-0.084,4.156,0.149,6.213c0.109,0.962,0.75,2.742,0.089,3.58c-0.42,0.531,1.469,0.342,1.553,0.325
    c0.769-0.142,1.793-0.392,2.304-1.038c0.653-0.827,0.196-2.426,0.053-3.356C27.374,26.385,27.576,24.249,27.499,22.17z"/>
  <path fill="#46C1AE" d="M43.828,18.851c-2.062-2.784-5.889-0.78-8.561-1.54c-1.377-0.393-1.395-2.271-1.392-3.396
    c0.004-1.426-0.114-2.731-0.273-4.146c-0.119-1.053-0.024-2.121,0.746-2.904c0.142-0.144,0.859-0.336,0.81-0.339
    c0.354-0.062,0.676-0.076,1.067-0.093c1.549-0.066,4.613,0.231,4.019,2.482c-0.266,1.01,3.596,0.432,3.877-0.637
    c1.213-4.598-7.284-3.714-9.686-3.078c-2.21,0.588-4.648,1.846-4.775,4.399c-0.061,1.219,0.273,2.379,0.325,3.587
    c0.061,1.39-0.198,2.775,0.289,4.118c1.082,2.981,5.52,1.575,7.778,1.744c3.845,0.287,2.697,5.47,2.748,7.884
    c0.027,1.288,1.181,3.429,0.211,4.507c-0.595,0.662-1.982,0.699-2.792,0.768c-0.813,0.068-2.201,0.313-2.742-0.461
    c-0.993-1.418,0.091-3.799-0.121-5.425c-0.121-0.924-4.066-0.095-3.917,1.05c0.342,2.627-1.399,6.146,2.402,6.596
    c2.441,0.289,5.191-0.16,7.5-0.928c1.196-0.396,2.307-0.941,3.243-1.793c1.035-0.94,0.694-2.348,0.417-3.547
    C44.324,24.782,45.732,21.421,43.828,18.851z"/>
  <path fill="#46C1AE" d="M61.155,18.662c-0.122-3.777-0.69-7.513-0.706-11.297c-0.009-1.971-3.964-1.305-3.957,0.343
    c0.015,3.608,0.497,7.167,0.682,10.765c0.005,0.073,0.009,0.146,0.013,0.221c-1.949-0.019-3.898,0.177-5.853,0.246
    c0.201-4.633-0.611-9.228-0.435-13.857c0.022-0.582-3.874-0.09-3.917,1.049c-0.171,4.476,0.587,8.915,0.453,13.393
    c-0.064,2.136-0.245,4.264-0.259,6.401c-0.007,1.096,0.171,2.184,0.329,3.264c0.146,0.999,0.484,2.331,0.182,3.317
    c-0.237,0.772,3.561,0.29,3.862-0.693c0.544-1.778-0.222-4.039-0.405-5.839c-0.175-1.726-0.039-3.499,0.083-5.248
    c2.03-0.13,4.059-0.297,6.081-0.013c0.09,1.378,0.195,2.754,0.321,4.135c0.104,1.156,0.179,2.313,0.196,3.475
    c0.015,1.019,0.142,2.496-0.221,3.461c-0.773,2.057,3.149,1.889,3.723,0.364c0.703-1.87,0.502-4.199,0.383-6.164
    C61.562,23.54,61.233,21.109,61.155,18.662z"/>
  <path fill="#46C1AE" d="M78.087,23.135c-0.939-2.758-2.373-5.177-3.615-7.797c1-1.948,2.018-3.897,2.932-5.888
    c0.83-1.808,1.445-3.819,3.08-5.092c0.574-0.447,0.55-0.896-0.256-0.951c-0.875-0.061-2.063,0.192-2.77,0.742
    c-1.484,1.158-2.427,2.563-3.201,4.268c-0.932,2.051-1.896,4.063-2.914,6.075c-0.074,0.147-0.148,0.295-0.224,0.443
    c-0.49,0.314-0.785,0.762-0.64,1.266c-0.791,1.563-1.6,3.117-2.498,4.61c-0.299-5.534-0.955-11.062-1.15-16.601
    c-0.045-1.27-3.971-0.479-3.917,1.049c0.243,6.868,1.219,13.72,1.286,20.588c-0.016,0.017-0.031,0.033-0.047,0.051
    c-0.301,0.308-0.19,0.494,0.051,0.602c0.002,1.75-0.059,3.501-0.209,5.254c-0.473,0.745,0.463,1.14,1.084,1.14
    c0.031,0,0.064,0,0.096,0c0.739,0,2.626-0.351,2.719-1.364c0.19-2.1,0.25-4.196,0.231-6.291c1.59-1.715,2.89-3.63,4.056-5.635
    c0.758,1.479,1.481,2.972,1.988,4.582c0.861,2.74,2.299,5.261,3.131,8.014c0.545,1.806,4.457,0.738,3.917-1.049
    C80.388,28.398,79.013,25.854,78.087,23.135z"/>
  <path fill="#46C1AE" d="M101.59,18.501c-0.21-0.832-1.372-0.849-2.271-0.77c-0.012-0.335-0.021-0.671-0.036-1.006
    c-0.125-2.661-0.165-5.379-0.392-8.032c-0.209-2.458-1.586-3.337-3.973-3.247c-2.416,0.092-5.229,0.527-7.482,1.403
    c-2.606,1.014-4.058,2.935-4.559,5.681c-0.549,3.014,0.24,6.219,0.373,9.246c0.154,3.503,0.066,7.014,0.063,10.519
    c0,0.573,3.916,0.031,3.916-1.049c0.004-2.775,0.043-5.551,0-8.327c-0.013-0.817-0.051-1.632-0.102-2.443
    c1.369-0.594,3.688,0.012,5.051,0.141c1.106,0.104,2.168-0.166,3.243-0.292c0.021,2.312,0.106,4.635,0.202,6.944
    c0.049,1.184,0.477,3.529-0.354,4.511c-0.438,0.516,1.479,0.343,1.555,0.33c0.793-0.146,1.761-0.401,2.303-1.041
    c0.949-1.12,0.456-3.79,0.4-5.126c-0.077-1.91-0.102-3.824-0.141-5.737C100.542,20.058,101.806,19.351,101.59,18.501z
      M86.972,18.351c-0.103-1.245-0.217-2.49-0.303-3.743c-0.16-2.331,0.117-5.583,2.29-6.999c0.58-0.379,1.675-0.315,2.354-0.438
    c0.97-0.176,1.955-0.389,2.828,0.19c1.211,0.802,0.912,3.657,0.912,4.869c-0.004,2.005,0.206,4.001,0.309,6.003
    c-0.551,0.055-1.11,0.089-1.682,0.076C91.394,18.256,89.136,17.896,86.972,18.351z"/>
  <path fill="#46C1AE" d="M24.108,6.7c0.521-0.05,1.045-0.226,1.477-0.524c0.085-0.071,0.171-0.144,0.256-0.216
    c0.52-0.335,0.972-0.827,0.728-1.36c-0.504-1.105-0.423-2.231-0.416-3.414c0.006-0.958-0.963-1.246-1.781-1.175
    c-0.723,0.063-2.168,0.581-2.175,1.521c-0.006,0.993-0.071,2.016,0.109,2.992c-0.047,0.112-0.074,0.239-0.104,0.354
    c-0.055,0.212,0.016,0.42,0.142,0.59c0,0.046,0.002,0.09,0.002,0.135c0.005,0.111,0.01,0.224,0.015,0.335
    c0.073,0.231,0.216,0.409,0.429,0.529C23.178,6.7,23.668,6.742,24.108,6.7z"/>
</g>
</svg>
